<?xml version="1.0" encoding="UTF-8" standalone="no"?>
<!DOCTYPE svg PUBLIC "-//W3C//DTD SVG 1.1//EN"
 "http://www.w3.org/Graphics/SVG/1.1/DTD/svg11.dtd">
<!-- Generated by graphviz version 2.40.1 (20161225.0304)
 -->
<!-- Title: dependencies Pages: 1 -->
<svg width="504pt" height="211pt"
 viewBox="0.00 0.00 504.00 211.00" xmlns="http://www.w3.org/2000/svg" xmlns:xlink="http://www.w3.org/1999/xlink">
<g id="graph0" class="graph" transform="scale(1 1) rotate(0) translate(4 207)">
<title>dependencies</title>
<polygon fill="#ffffff" stroke="transparent" points="-4,4 -4,-207 500,-207 500,4 -4,4"/>
<text text-anchor="start" x="227.0091" y="-42.4" font-family="sans-serif" font-weight="bold" font-size="14.00" fill="#000000">Legend</text>
<polygon fill="#ffffb3" stroke="transparent" points="14,-10 14,-30 34,-30 34,-10 14,-10"/>
<text text-anchor="start" x="37.629" y="-15.4" font-family="sans-serif" font-size="14.00" fill="#000000"> &#160;Declarations</text>
<polygon fill="#8dd3c7" stroke="transparent" points="127,-10 127,-30 147,-30 147,-10 127,-10"/>
<text text-anchor="start" x="150.7251" y="-15.4" font-family="sans-serif" font-size="14.00" fill="#000000"> &#160;Module</text>
<polygon fill="#80b1d3" stroke="transparent" points="213,-10 213,-30 233,-30 233,-10 213,-10"/>
<text text-anchor="start" x="236.7812" y="-15.4" font-family="sans-serif" font-size="14.00" fill="#000000"> &#160;Bootstrap</text>
<polygon fill="#fdb462" stroke="transparent" points="310,-10 310,-30 330,-30 330,-10 310,-10"/>
<text text-anchor="start" x="333.6732" y="-15.4" font-family="sans-serif" font-size="14.00" fill="#000000"> &#160;Providers</text>
<polygon fill="#fb8072" stroke="transparent" points="406,-10 406,-30 426,-30 426,-10 406,-10"/>
<text text-anchor="start" x="429.7258" y="-15.4" font-family="sans-serif" font-size="14.00" fill="#000000"> &#160;Exports</text>
<g id="clust1" class="cluster">
<title>cluster_MarketModule</title>
<polygon fill="none" stroke="#000000" stroke-dasharray="1,5" points="108,-70 108,-195 388,-195 388,-70 108,-70"/>
</g>
<g id="clust3" class="cluster">
<title>cluster_MarketModule_imports</title>
<polygon fill="none" stroke="#000000" points="276,-78 276,-130 380,-130 380,-78 276,-78"/>
</g>
<g id="clust6" class="cluster">
<title>cluster_MarketModule_providers</title>
<polygon fill="none" stroke="#000000" points="116,-78 116,-130 268,-130 268,-78 116,-78"/>
</g>
<!-- AuthModule -->
<g id="node1" class="node">
<title>AuthModule</title>
<polygon fill="#8dd3c7" stroke="#000000" points="371.5482,-122 368.5482,-126 347.5482,-126 344.5482,-122 284.4518,-122 284.4518,-86 371.5482,-86 371.5482,-122"/>
<text text-anchor="middle" x="328" y="-99.8" font-family="Times,serif" font-size="14.00" fill="#000000">AuthModule</text>
</g>
<!-- MarketModule -->
<g id="node2" class="node">
<title>MarketModule</title>
<polygon fill="#8dd3c7" stroke="#000000" points="309.9748,-187 306.9748,-191 285.9748,-191 282.9748,-187 210.0252,-187 210.0252,-151 309.9748,-151 309.9748,-187"/>
<text text-anchor="middle" x="260" y="-164.8" font-family="Times,serif" font-size="14.00" fill="#000000">MarketModule</text>
</g>
<!-- AuthModule&#45;&gt;MarketModule -->
<g id="edge1" class="edge">
<title>AuthModule&#45;&gt;MarketModule</title>
<path fill="none" stroke="#000000" d="M297.107,-122.1061C297.107,-122.1061 297.107,-140.991 297.107,-140.991"/>
<polygon fill="#000000" stroke="#000000" points="293.607,-140.9909 297.107,-150.991 300.607,-140.991 293.607,-140.9909"/>
</g>
<!-- MarketService -->
<g id="node3" class="node">
<title>MarketService</title>
<ellipse fill="#fdb462" stroke="#000000" cx="192" cy="-104" rx="67.7529" ry="18"/>
<text text-anchor="middle" x="192" y="-99.8" font-family="Times,serif" font-size="14.00" fill="#000000">MarketService</text>
</g>
<!-- MarketService&#45;&gt;MarketModule -->
<g id="edge2" class="edge">
<title>MarketService&#45;&gt;MarketModule</title>
<path fill="none" stroke="#000000" d="M234.9445,-118.104C234.9445,-118.104 234.9445,-140.7209 234.9445,-140.7209"/>
<polygon fill="#000000" stroke="#000000" points="231.4446,-140.7209 234.9445,-150.7209 238.4446,-140.7209 231.4446,-140.7209"/>
</g>
</g>
</svg>
