<?xml version="1.0" encoding="UTF-8" standalone="no"?>
<!DOCTYPE svg PUBLIC "-//W3C//DTD SVG 1.1//EN"
 "http://www.w3.org/Graphics/SVG/1.1/DTD/svg11.dtd">
<!-- Generated by graphviz version 2.40.1 (20161225.0304)
 -->
<!-- Title: dependencies Pages: 1 -->
<svg width="880pt" height="211pt"
 viewBox="0.00 0.00 880.00 211.00" xmlns="http://www.w3.org/2000/svg" xmlns:xlink="http://www.w3.org/1999/xlink">
<g id="graph0" class="graph" transform="scale(1 1) rotate(0) translate(4 207)">
<title>dependencies</title>
<polygon fill="#ffffff" stroke="transparent" points="-4,4 -4,-207 876,-207 876,4 -4,4"/>
<text text-anchor="start" x="415.0091" y="-42.4" font-family="sans-serif" font-weight="bold" font-size="14.00" fill="#000000">Legend</text>
<polygon fill="#ffffb3" stroke="transparent" points="202,-10 202,-30 222,-30 222,-10 202,-10"/>
<text text-anchor="start" x="225.629" y="-15.4" font-family="sans-serif" font-size="14.00" fill="#000000"> &#160;Declarations</text>
<polygon fill="#8dd3c7" stroke="transparent" points="315,-10 315,-30 335,-30 335,-10 315,-10"/>
<text text-anchor="start" x="338.7251" y="-15.4" font-family="sans-serif" font-size="14.00" fill="#000000"> &#160;Module</text>
<polygon fill="#80b1d3" stroke="transparent" points="401,-10 401,-30 421,-30 421,-10 401,-10"/>
<text text-anchor="start" x="424.7812" y="-15.4" font-family="sans-serif" font-size="14.00" fill="#000000"> &#160;Bootstrap</text>
<polygon fill="#fdb462" stroke="transparent" points="498,-10 498,-30 518,-30 518,-10 498,-10"/>
<text text-anchor="start" x="521.6732" y="-15.4" font-family="sans-serif" font-size="14.00" fill="#000000"> &#160;Providers</text>
<polygon fill="#fb8072" stroke="transparent" points="594,-10 594,-30 614,-30 614,-10 594,-10"/>
<text text-anchor="start" x="617.7258" y="-15.4" font-family="sans-serif" font-size="14.00" fill="#000000"> &#160;Exports</text>
<g id="clust1" class="cluster">
<title>cluster_AppModule</title>
<polygon fill="none" stroke="#000000" stroke-dasharray="1,5" points="8,-70 8,-195 864,-195 864,-70 8,-70"/>
</g>
<g id="clust3" class="cluster">
<title>cluster_AppModule_imports</title>
<polygon fill="none" stroke="#000000" points="154,-78 154,-130 856,-130 856,-78 154,-78"/>
</g>
<g id="clust6" class="cluster">
<title>cluster_AppModule_providers</title>
<polygon fill="none" stroke="#000000" points="16,-78 16,-130 146,-130 146,-78 16,-78"/>
</g>
<!-- AdminModule -->
<g id="node1" class="node">
<title>AdminModule</title>
<polygon fill="#8dd3c7" stroke="#000000" points="848.4386,-122 845.4386,-126 824.4386,-126 821.4386,-122 749.5614,-122 749.5614,-86 848.4386,-86 848.4386,-122"/>
<text text-anchor="middle" x="799" y="-99.8" font-family="Times,serif" font-size="14.00" fill="#000000">AdminModule</text>
</g>
<!-- AppModule -->
<g id="node7" class="node">
<title>AppModule</title>
<polygon fill="#8dd3c7" stroke="#000000" points="501.6571,-187 498.6571,-191 477.6571,-191 474.6571,-187 418.3429,-187 418.3429,-151 501.6571,-151 501.6571,-187"/>
<text text-anchor="middle" x="460" y="-164.8" font-family="Times,serif" font-size="14.00" fill="#000000">AppModule</text>
</g>
<!-- AdminModule&#45;&gt;AppModule -->
<g id="edge1" class="edge">
<title>AdminModule&#45;&gt;AppModule</title>
<path fill="none" stroke="#000000" d="M799,-122.2921C799,-144.2057 799,-178 799,-178 799,-178 511.9081,-178 511.9081,-178"/>
<polygon fill="#000000" stroke="#000000" points="511.9081,-174.5001 501.9081,-178 511.908,-181.5001 511.9081,-174.5001"/>
</g>
<!-- AuthModule -->
<g id="node2" class="node">
<title>AuthModule</title>
<polygon fill="#8dd3c7" stroke="#000000" points="731.5482,-122 728.5482,-126 707.5482,-126 704.5482,-122 644.4518,-122 644.4518,-86 731.5482,-86 731.5482,-122"/>
<text text-anchor="middle" x="688" y="-99.8" font-family="Times,serif" font-size="14.00" fill="#000000">AuthModule</text>
</g>
<!-- AuthModule&#45;&gt;AppModule -->
<g id="edge2" class="edge">
<title>AuthModule&#45;&gt;AppModule</title>
<path fill="none" stroke="#000000" d="M688,-122.1061C688,-141.3391 688,-169 688,-169 688,-169 511.8187,-169 511.8187,-169"/>
<polygon fill="#000000" stroke="#000000" points="511.8187,-165.5001 501.8187,-169 511.8187,-172.5001 511.8187,-165.5001"/>
</g>
<!-- ConfigModule -->
<g id="node3" class="node">
<title>ConfigModule</title>
<polygon fill="#8dd3c7" stroke="#000000" points="626.4386,-122 623.4386,-126 602.4386,-126 599.4386,-122 527.5614,-122 527.5614,-86 626.4386,-86 626.4386,-122"/>
<text text-anchor="middle" x="577" y="-99.8" font-family="Times,serif" font-size="14.00" fill="#000000">ConfigModule</text>
</g>
<!-- ConfigModule&#45;&gt;AppModule -->
<g id="edge3" class="edge">
<title>ConfigModule&#45;&gt;AppModule</title>
<path fill="none" stroke="#000000" d="M577,-122.027C577,-138.3976 577,-160 577,-160 577,-160 511.9092,-160 511.9092,-160"/>
<polygon fill="#000000" stroke="#000000" points="511.9093,-156.5001 501.9092,-160 511.9092,-163.5001 511.9093,-156.5001"/>
</g>
<!-- MarketModule -->
<g id="node4" class="node">
<title>MarketModule</title>
<polygon fill="#8dd3c7" stroke="#000000" points="509.9748,-122 506.9748,-126 485.9748,-126 482.9748,-122 410.0252,-122 410.0252,-86 509.9748,-86 509.9748,-122"/>
<text text-anchor="middle" x="460" y="-99.8" font-family="Times,serif" font-size="14.00" fill="#000000">MarketModule</text>
</g>
<!-- MarketModule&#45;&gt;AppModule -->
<g id="edge4" class="edge">
<title>MarketModule&#45;&gt;AppModule</title>
<path fill="none" stroke="#000000" d="M460,-122.1061C460,-122.1061 460,-140.991 460,-140.991"/>
<polygon fill="#000000" stroke="#000000" points="456.5001,-140.9909 460,-150.991 463.5001,-140.991 456.5001,-140.9909"/>
</g>
<!-- TransactionModule -->
<g id="node5" class="node">
<title>TransactionModule</title>
<polygon fill="#8dd3c7" stroke="#000000" points="391.6331,-122 388.6331,-126 367.6331,-126 364.6331,-122 266.3669,-122 266.3669,-86 391.6331,-86 391.6331,-122"/>
<text text-anchor="middle" x="329" y="-99.8" font-family="Times,serif" font-size="14.00" fill="#000000">TransactionModule</text>
</g>
<!-- TransactionModule&#45;&gt;AppModule -->
<g id="edge5" class="edge">
<title>TransactionModule&#45;&gt;AppModule</title>
<path fill="none" stroke="#000000" d="M329,-122.027C329,-138.3976 329,-160 329,-160 329,-160 408.1906,-160 408.1906,-160"/>
<polygon fill="#000000" stroke="#000000" points="408.1906,-163.5001 418.1906,-160 408.1906,-156.5001 408.1906,-163.5001"/>
</g>
<!-- UserModule -->
<g id="node6" class="node">
<title>UserModule</title>
<polygon fill="#8dd3c7" stroke="#000000" points="247.9762,-122 244.9762,-126 223.9762,-126 220.9762,-122 162.0238,-122 162.0238,-86 247.9762,-86 247.9762,-122"/>
<text text-anchor="middle" x="205" y="-99.8" font-family="Times,serif" font-size="14.00" fill="#000000">UserModule</text>
</g>
<!-- UserModule&#45;&gt;AppModule -->
<g id="edge6" class="edge">
<title>UserModule&#45;&gt;AppModule</title>
<path fill="none" stroke="#000000" d="M205,-122.1061C205,-141.3391 205,-169 205,-169 205,-169 408.1775,-169 408.1775,-169"/>
<polygon fill="#000000" stroke="#000000" points="408.1775,-172.5001 418.1775,-169 408.1774,-165.5001 408.1775,-172.5001"/>
</g>
<!-- AppService -->
<g id="node8" class="node">
<title>AppService</title>
<ellipse fill="#fdb462" stroke="#000000" cx="81" cy="-104" rx="56.7406" ry="18"/>
<text text-anchor="middle" x="81" y="-99.8" font-family="Times,serif" font-size="14.00" fill="#000000">AppService</text>
</g>
<!-- AppService&#45;&gt;AppModule -->
<g id="edge7" class="edge">
<title>AppService&#45;&gt;AppModule</title>
<path fill="none" stroke="#000000" d="M81,-122.2921C81,-144.2057 81,-178 81,-178 81,-178 407.9923,-178 407.9923,-178"/>
<polygon fill="#000000" stroke="#000000" points="407.9923,-181.5001 417.9923,-178 407.9923,-174.5001 407.9923,-181.5001"/>
</g>
</g>
</svg>
