<?xml version="1.0" encoding="UTF-8" standalone="no"?>
<!DOCTYPE svg PUBLIC "-//W3C//DTD SVG 1.1//EN"
 "http://www.w3.org/Graphics/SVG/1.1/DTD/svg11.dtd">
<!-- Generated by graphviz version 2.40.1 (20161225.0304)
 -->
<!-- Title: dependencies Pages: 1 -->
<svg width="742pt" height="211pt"
 viewBox="0.00 0.00 742.00 211.00" xmlns="http://www.w3.org/2000/svg" xmlns:xlink="http://www.w3.org/1999/xlink">
<g id="graph0" class="graph" transform="scale(1 1) rotate(0) translate(4 207)">
<title>dependencies</title>
<polygon fill="#ffffff" stroke="transparent" points="-4,4 -4,-207 738,-207 738,4 -4,4"/>
<text text-anchor="start" x="346.0091" y="-42.4" font-family="sans-serif" font-weight="bold" font-size="14.00" fill="#000000">Legend</text>
<polygon fill="#ffffb3" stroke="transparent" points="133,-10 133,-30 153,-30 153,-10 133,-10"/>
<text text-anchor="start" x="156.629" y="-15.4" font-family="sans-serif" font-size="14.00" fill="#000000"> &#160;Declarations</text>
<polygon fill="#8dd3c7" stroke="transparent" points="246,-10 246,-30 266,-30 266,-10 246,-10"/>
<text text-anchor="start" x="269.7251" y="-15.4" font-family="sans-serif" font-size="14.00" fill="#000000"> &#160;Module</text>
<polygon fill="#80b1d3" stroke="transparent" points="332,-10 332,-30 352,-30 352,-10 332,-10"/>
<text text-anchor="start" x="355.7812" y="-15.4" font-family="sans-serif" font-size="14.00" fill="#000000"> &#160;Bootstrap</text>
<polygon fill="#fdb462" stroke="transparent" points="429,-10 429,-30 449,-30 449,-10 429,-10"/>
<text text-anchor="start" x="452.6732" y="-15.4" font-family="sans-serif" font-size="14.00" fill="#000000"> &#160;Providers</text>
<polygon fill="#fb8072" stroke="transparent" points="525,-10 525,-30 545,-30 545,-10 525,-10"/>
<text text-anchor="start" x="548.7258" y="-15.4" font-family="sans-serif" font-size="14.00" fill="#000000"> &#160;Exports</text>
<g id="clust1" class="cluster">
<title>cluster_AppModule</title>
<polygon fill="none" stroke="#000000" stroke-dasharray="1,5" points="8,-70 8,-195 726,-195 726,-70 8,-70"/>
</g>
<g id="clust3" class="cluster">
<title>cluster_AppModule_imports</title>
<polygon fill="none" stroke="#000000" points="16,-78 16,-130 718,-130 718,-78 16,-78"/>
</g>
<!-- AdminModule -->
<g id="node1" class="node">
<title>AdminModule</title>
<polygon fill="#8dd3c7" stroke="#000000" points="710.4386,-122 707.4386,-126 686.4386,-126 683.4386,-122 611.5614,-122 611.5614,-86 710.4386,-86 710.4386,-122"/>
<text text-anchor="middle" x="661" y="-99.8" font-family="Times,serif" font-size="14.00" fill="#000000">AdminModule</text>
</g>
<!-- AppModule -->
<g id="node7" class="node">
<title>AppModule</title>
<polygon fill="#8dd3c7" stroke="#000000" points="421.6571,-187 418.6571,-191 397.6571,-191 394.6571,-187 338.3429,-187 338.3429,-151 421.6571,-151 421.6571,-187"/>
<text text-anchor="middle" x="380" y="-164.8" font-family="Times,serif" font-size="14.00" fill="#000000">AppModule</text>
</g>
<!-- AdminModule&#45;&gt;AppModule -->
<g id="edge1" class="edge">
<title>AdminModule&#45;&gt;AppModule</title>
<path fill="none" stroke="#000000" d="M661,-122.2843C661,-143.3211 661,-175 661,-175 661,-175 431.7651,-175 431.7651,-175"/>
<polygon fill="#000000" stroke="#000000" points="431.7652,-171.5001 421.7651,-175 431.7651,-178.5001 431.7652,-171.5001"/>
</g>
<!-- AuthModule -->
<g id="node2" class="node">
<title>AuthModule</title>
<polygon fill="#8dd3c7" stroke="#000000" points="593.5482,-122 590.5482,-126 569.5482,-126 566.5482,-122 506.4518,-122 506.4518,-86 593.5482,-86 593.5482,-122"/>
<text text-anchor="middle" x="550" y="-99.8" font-family="Times,serif" font-size="14.00" fill="#000000">AuthModule</text>
</g>
<!-- AuthModule&#45;&gt;AppModule -->
<g id="edge2" class="edge">
<title>AuthModule&#45;&gt;AppModule</title>
<path fill="none" stroke="#000000" d="M550,-122.0225C550,-139.3734 550,-163 550,-163 550,-163 432.0225,-163 432.0225,-163"/>
<polygon fill="#000000" stroke="#000000" points="432.0225,-159.5001 422.0225,-163 432.0224,-166.5001 432.0225,-159.5001"/>
</g>
<!-- ConfigModule -->
<g id="node3" class="node">
<title>ConfigModule</title>
<polygon fill="#8dd3c7" stroke="#000000" points="488.4386,-122 485.4386,-126 464.4386,-126 461.4386,-122 389.5614,-122 389.5614,-86 488.4386,-86 488.4386,-122"/>
<text text-anchor="middle" x="439" y="-99.8" font-family="Times,serif" font-size="14.00" fill="#000000">ConfigModule</text>
</g>
<!-- ConfigModule&#45;&gt;AppModule -->
<g id="edge3" class="edge">
<title>ConfigModule&#45;&gt;AppModule</title>
<path fill="none" stroke="#000000" d="M405.8047,-122.1061C405.8047,-122.1061 405.8047,-140.991 405.8047,-140.991"/>
<polygon fill="#000000" stroke="#000000" points="402.3048,-140.9909 405.8047,-150.991 409.3048,-140.991 402.3048,-140.9909"/>
</g>
<!-- MarketModule -->
<g id="node4" class="node">
<title>MarketModule</title>
<polygon fill="#8dd3c7" stroke="#000000" points="371.9748,-122 368.9748,-126 347.9748,-126 344.9748,-122 272.0252,-122 272.0252,-86 371.9748,-86 371.9748,-122"/>
<text text-anchor="middle" x="322" y="-99.8" font-family="Times,serif" font-size="14.00" fill="#000000">MarketModule</text>
</g>
<!-- MarketModule&#45;&gt;AppModule -->
<g id="edge4" class="edge">
<title>MarketModule&#45;&gt;AppModule</title>
<path fill="none" stroke="#000000" d="M355.0796,-122.1061C355.0796,-122.1061 355.0796,-140.991 355.0796,-140.991"/>
<polygon fill="#000000" stroke="#000000" points="351.5797,-140.9909 355.0796,-150.991 358.5797,-140.991 351.5797,-140.9909"/>
</g>
<!-- TransactionModule -->
<g id="node5" class="node">
<title>TransactionModule</title>
<polygon fill="#8dd3c7" stroke="#000000" points="253.6331,-122 250.6331,-126 229.6331,-126 226.6331,-122 128.3669,-122 128.3669,-86 253.6331,-86 253.6331,-122"/>
<text text-anchor="middle" x="191" y="-99.8" font-family="Times,serif" font-size="14.00" fill="#000000">TransactionModule</text>
</g>
<!-- TransactionModule&#45;&gt;AppModule -->
<g id="edge5" class="edge">
<title>TransactionModule&#45;&gt;AppModule</title>
<path fill="none" stroke="#000000" d="M191,-122.0225C191,-139.3734 191,-163 191,-163 191,-163 328.0548,-163 328.0548,-163"/>
<polygon fill="#000000" stroke="#000000" points="328.0548,-166.5001 338.0548,-163 328.0547,-159.5001 328.0548,-166.5001"/>
</g>
<!-- UserModule -->
<g id="node6" class="node">
<title>UserModule</title>
<polygon fill="#8dd3c7" stroke="#000000" points="109.9762,-122 106.9762,-126 85.9762,-126 82.9762,-122 24.0238,-122 24.0238,-86 109.9762,-86 109.9762,-122"/>
<text text-anchor="middle" x="67" y="-99.8" font-family="Times,serif" font-size="14.00" fill="#000000">UserModule</text>
</g>
<!-- UserModule&#45;&gt;AppModule -->
<g id="edge6" class="edge">
<title>UserModule&#45;&gt;AppModule</title>
<path fill="none" stroke="#000000" d="M67,-122.2843C67,-143.3211 67,-175 67,-175 67,-175 328.1122,-175 328.1122,-175"/>
<polygon fill="#000000" stroke="#000000" points="328.1122,-178.5001 338.1122,-175 328.1122,-171.5001 328.1122,-178.5001"/>
</g>
</g>
</svg>
