<?xml version="1.0" encoding="UTF-8" standalone="no"?>
<!DOCTYPE svg PUBLIC "-//W3C//DTD SVG 1.1//EN"
 "http://www.w3.org/Graphics/SVG/1.1/DTD/svg11.dtd">
<!-- Generated by graphviz version 2.40.1 (20161225.0304)
 -->
<!-- Title: dependencies Pages: 1 -->
<svg width="675pt" height="371pt"
 viewBox="0.00 0.00 675.00 371.00" xmlns="http://www.w3.org/2000/svg" xmlns:xlink="http://www.w3.org/1999/xlink">
<g id="graph0" class="graph" transform="scale(1 1) rotate(0) translate(4 367)">
<title>dependencies</title>
<polygon fill="#ffffff" stroke="transparent" points="-4,4 -4,-367 671,-367 671,4 -4,4"/>
<text text-anchor="start" x="312.5091" y="-42.4" font-family="sans-serif" font-weight="bold" font-size="14.00" fill="#000000">Legend</text>
<polygon fill="#ffffb3" stroke="transparent" points="99.5,-10 99.5,-30 119.5,-30 119.5,-10 99.5,-10"/>
<text text-anchor="start" x="123.129" y="-15.4" font-family="sans-serif" font-size="14.00" fill="#000000"> &#160;Declarations</text>
<polygon fill="#8dd3c7" stroke="transparent" points="212.5,-10 212.5,-30 232.5,-30 232.5,-10 212.5,-10"/>
<text text-anchor="start" x="236.2251" y="-15.4" font-family="sans-serif" font-size="14.00" fill="#000000"> &#160;Module</text>
<polygon fill="#80b1d3" stroke="transparent" points="298.5,-10 298.5,-30 318.5,-30 318.5,-10 298.5,-10"/>
<text text-anchor="start" x="322.2812" y="-15.4" font-family="sans-serif" font-size="14.00" fill="#000000"> &#160;Bootstrap</text>
<polygon fill="#fdb462" stroke="transparent" points="395.5,-10 395.5,-30 415.5,-30 415.5,-10 395.5,-10"/>
<text text-anchor="start" x="419.1732" y="-15.4" font-family="sans-serif" font-size="14.00" fill="#000000"> &#160;Providers</text>
<polygon fill="#fb8072" stroke="transparent" points="491.5,-10 491.5,-30 511.5,-30 511.5,-10 491.5,-10"/>
<text text-anchor="start" x="515.2258" y="-15.4" font-family="sans-serif" font-size="14.00" fill="#000000"> &#160;Exports</text>
<g id="clust1" class="cluster">
<title>cluster_AppModule</title>
<polygon fill="none" stroke="#000000" stroke-dasharray="1,5" points="17,-146 17,-347 391,-347 391,-146 17,-146"/>
</g>
<g id="clust3" class="cluster">
<title>cluster_AppModule_imports</title>
<polygon fill="none" stroke="#000000" points="163,-154 163,-271 383,-271 383,-154 163,-154"/>
</g>
<g id="clust6" class="cluster">
<title>cluster_AppModule_providers</title>
<polygon fill="none" stroke="#000000" points="25,-219 25,-271 155,-271 155,-219 25,-219"/>
</g>
<g id="clust7" class="cluster">
<title>cluster_AuthModule</title>
<polygon fill="none" stroke="#000000" stroke-dasharray="1,5" points="8,-70 8,-138 400,-138 400,-70 8,-70"/>
</g>
<g id="clust10" class="cluster">
<title>cluster_AuthModule_exports</title>
<polygon fill="none" stroke="#000000" points="290,-78 290,-130 392,-130 392,-78 290,-78"/>
</g>
<g id="clust12" class="cluster">
<title>cluster_AuthModule_providers</title>
<polygon fill="none" stroke="#000000" points="16,-78 16,-130 282,-130 282,-78 16,-78"/>
</g>
<g id="clust13" class="cluster">
<title>cluster_ConfigModule</title>
<polygon fill="none" stroke="#000000" stroke-dasharray="1,5" points="399,-211 399,-279 531,-279 531,-211 399,-211"/>
</g>
<g id="clust16" class="cluster">
<title>cluster_ConfigModule_exports</title>
<polygon fill="none" stroke="#000000" points="407,-219 407,-271 523,-271 523,-219 407,-219"/>
</g>
<g id="clust19" class="cluster">
<title>cluster_UserModule</title>
<polygon fill="none" stroke="#000000" stroke-dasharray="1,5" points="399,-287 399,-355 659,-355 659,-287 399,-287"/>
</g>
<g id="clust22" class="cluster">
<title>cluster_UserModule_exports</title>
<polygon fill="none" stroke="#000000" points="547,-295 547,-347 651,-347 651,-295 547,-295"/>
</g>
<g id="clust24" class="cluster">
<title>cluster_UserModule_providers</title>
<polygon fill="none" stroke="#000000" points="407,-295 407,-347 539,-347 539,-295 407,-295"/>
</g>
<!-- AuthModule -->
<g id="node1" class="node">
<title>AuthModule</title>
<polygon fill="#8dd3c7" stroke="#000000" points="258.5482,-198 255.5482,-202 234.5482,-202 231.5482,-198 171.4518,-198 171.4518,-162 258.5482,-162 258.5482,-198"/>
<text text-anchor="middle" x="215" y="-175.8" font-family="Times,serif" font-size="14.00" fill="#000000">AuthModule</text>
</g>
<!-- UserModule -->
<g id="node3" class="node">
<title>UserModule</title>
<polygon fill="#8dd3c7" stroke="#000000" points="368.9762,-263 365.9762,-267 344.9762,-267 341.9762,-263 283.0238,-263 283.0238,-227 368.9762,-227 368.9762,-263"/>
<text text-anchor="middle" x="326" y="-240.8" font-family="Times,serif" font-size="14.00" fill="#000000">UserModule</text>
</g>
<!-- AuthModule&#45;&gt;UserModule -->
<g id="edge9" class="edge">
<title>AuthModule&#45;&gt;UserModule</title>
<path fill="none" stroke="#000000" d="M242.6231,-198.027C242.6231,-214.3976 242.6231,-236 242.6231,-236 242.6231,-236 272.8462,-236 272.8462,-236"/>
<polygon fill="#000000" stroke="#000000" points="272.8462,-239.5001 282.8462,-236 272.8462,-232.5001 272.8462,-239.5001"/>
</g>
<!-- AppModule -->
<g id="node4" class="node">
<title>AppModule</title>
<polygon fill="#8dd3c7" stroke="#000000" points="277.6571,-339 274.6571,-343 253.6571,-343 250.6571,-339 194.3429,-339 194.3429,-303 277.6571,-303 277.6571,-339"/>
<text text-anchor="middle" x="236" y="-316.8" font-family="Times,serif" font-size="14.00" fill="#000000">AppModule</text>
</g>
<!-- AuthModule&#45;&gt;AppModule -->
<g id="edge1" class="edge">
<title>AuthModule&#45;&gt;AppModule</title>
<path fill="none" stroke="#000000" d="M226.4727,-198.1446C226.4727,-198.1446 226.4727,-292.925 226.4727,-292.925"/>
<polygon fill="#000000" stroke="#000000" points="222.9727,-292.925 226.4727,-302.925 229.9727,-292.925 222.9727,-292.925"/>
</g>
<!-- JwtStrategy  -->
<g id="node6" class="node">
<title>JwtStrategy </title>
<polygon fill="#fb8072" stroke="#000000" points="383.5964,-122 298.4036,-122 298.4036,-86 383.5964,-86 383.5964,-122"/>
<text text-anchor="middle" x="341" y="-99.8" font-family="Times,serif" font-size="14.00" fill="#000000">JwtStrategy </text>
</g>
<!-- AuthModule&#45;&gt;JwtStrategy  -->
<g id="edge5" class="edge">
<title>AuthModule&#45;&gt;JwtStrategy </title>
<path fill="none" stroke="#000000" stroke-dasharray="5,2" d="M229.5912,-161.8903C229.5912,-152.103 229.5912,-142 229.5912,-142 229.5912,-142 336.7106,-142 336.7106,-142 336.7106,-142 336.7106,-132.1097 336.7106,-132.1097"/>
<polygon fill="#000000" stroke="#000000" points="340.2106,-132.1096 336.7106,-122.1097 333.2106,-132.1097 340.2106,-132.1096"/>
</g>
<!-- ConfigModule -->
<g id="node2" class="node">
<title>ConfigModule</title>
<polygon fill="#8dd3c7" stroke="#000000" points="375.4386,-198 372.4386,-202 351.4386,-202 348.4386,-198 276.5614,-198 276.5614,-162 375.4386,-162 375.4386,-198"/>
<text text-anchor="middle" x="326" y="-175.8" font-family="Times,serif" font-size="14.00" fill="#000000">ConfigModule</text>
</g>
<!-- ConfigModule&#45;&gt;UserModule -->
<g id="edge10" class="edge">
<title>ConfigModule&#45;&gt;UserModule</title>
<path fill="none" stroke="#000000" d="M326,-198.1061C326,-198.1061 326,-216.991 326,-216.991"/>
<polygon fill="#000000" stroke="#000000" points="322.5001,-216.9909 326,-226.991 329.5001,-216.991 322.5001,-216.9909"/>
</g>
<!-- ConfigModule&#45;&gt;AppModule -->
<g id="edge2" class="edge">
<title>ConfigModule&#45;&gt;AppModule</title>
<path fill="none" stroke="#000000" d="M276.507,-180C269.135,-180 263.9503,-180 263.9503,-180 263.9503,-180 263.9503,-292.8554 263.9503,-292.8554"/>
<polygon fill="#000000" stroke="#000000" points="260.4504,-292.8553 263.9503,-302.8554 267.4504,-292.8554 260.4504,-292.8553"/>
</g>
<!-- ConfigService  -->
<g id="node9" class="node">
<title>ConfigService </title>
<polygon fill="#fb8072" stroke="#000000" points="515.3661,-263 414.6339,-263 414.6339,-227 515.3661,-227 515.3661,-263"/>
<text text-anchor="middle" x="465" y="-240.8" font-family="Times,serif" font-size="14.00" fill="#000000">ConfigService </text>
</g>
<!-- ConfigModule&#45;&gt;ConfigService  -->
<g id="edge8" class="edge">
<title>ConfigModule&#45;&gt;ConfigService </title>
<path fill="none" stroke="#000000" stroke-dasharray="5,2" d="M375.3976,-180C415.3502,-180 465,-180 465,-180 465,-180 465,-216.8939 465,-216.8939"/>
<polygon fill="#000000" stroke="#000000" points="461.5001,-216.8938 465,-226.8939 468.5001,-216.8939 461.5001,-216.8938"/>
</g>
<!-- UserModule&#45;&gt;AppModule -->
<g id="edge3" class="edge">
<title>UserModule&#45;&gt;AppModule</title>
<path fill="none" stroke="#000000" d="M282.8944,-254C274.9622,-254 269.1271,-254 269.1271,-254 269.1271,-254 269.1271,-292.692 269.1271,-292.692"/>
<polygon fill="#000000" stroke="#000000" points="265.6272,-292.6919 269.1271,-302.692 272.6272,-292.692 265.6272,-292.6919"/>
</g>
<!-- UserService  -->
<g id="node10" class="node">
<title>UserService </title>
<polygon fill="#fb8072" stroke="#000000" points="642.9041,-339 555.0959,-339 555.0959,-303 642.9041,-303 642.9041,-339"/>
<text text-anchor="middle" x="599" y="-316.8" font-family="Times,serif" font-size="14.00" fill="#000000">UserService </text>
</g>
<!-- UserModule&#45;&gt;UserService  -->
<g id="edge11" class="edge">
<title>UserModule&#45;&gt;UserService </title>
<path fill="none" stroke="#000000" stroke-dasharray="5,2" d="M311.6706,-263.1097C311.6706,-272.897 311.6706,-283 311.6706,-283 311.6706,-283 599,-283 599,-283 599,-283 599,-292.8903 599,-292.8903"/>
<polygon fill="#000000" stroke="#000000" points="595.5001,-292.8903 599,-302.8903 602.5001,-292.8904 595.5001,-292.8903"/>
</g>
<!-- AppService -->
<g id="node5" class="node">
<title>AppService</title>
<ellipse fill="#fdb462" stroke="#000000" cx="90" cy="-245" rx="56.7406" ry="18"/>
<text text-anchor="middle" x="90" y="-240.8" font-family="Times,serif" font-size="14.00" fill="#000000">AppService</text>
</g>
<!-- AppService&#45;&gt;AppModule -->
<g id="edge4" class="edge">
<title>AppService&#45;&gt;AppModule</title>
<path fill="none" stroke="#000000" d="M146.6378,-245C177.8457,-245 210.3222,-245 210.3222,-245 210.3222,-245 210.3222,-292.9891 210.3222,-292.9891"/>
<polygon fill="#000000" stroke="#000000" points="206.8223,-292.989 210.3222,-302.9891 213.8223,-292.9891 206.8223,-292.989"/>
</g>
<!-- AuthService -->
<g id="node7" class="node">
<title>AuthService</title>
<ellipse fill="#fdb462" stroke="#000000" cx="215" cy="-104" rx="59.1083" ry="18"/>
<text text-anchor="middle" x="215" y="-99.8" font-family="Times,serif" font-size="14.00" fill="#000000">AuthService</text>
</g>
<!-- AuthService&#45;&gt;AuthModule -->
<g id="edge6" class="edge">
<title>AuthService&#45;&gt;AuthModule</title>
<path fill="none" stroke="#000000" d="M200.4088,-121.627C200.4088,-121.627 200.4088,-151.9409 200.4088,-151.9409"/>
<polygon fill="#000000" stroke="#000000" points="196.9089,-151.9408 200.4088,-161.9409 203.9089,-151.9409 196.9089,-151.9408"/>
</g>
<!-- JwtStrategy -->
<g id="node8" class="node">
<title>JwtStrategy</title>
<ellipse fill="#fdb462" stroke="#000000" cx="81" cy="-104" rx="56.7561" ry="18"/>
<text text-anchor="middle" x="81" y="-99.8" font-family="Times,serif" font-size="14.00" fill="#000000">JwtStrategy</text>
</g>
<!-- JwtStrategy&#45;&gt;AuthModule -->
<g id="edge7" class="edge">
<title>JwtStrategy&#45;&gt;AuthModule</title>
<path fill="none" stroke="#000000" d="M85.5039,-122.0109C85.5039,-144.4852 85.5039,-180 85.5039,-180 85.5039,-180 161.1585,-180 161.1585,-180"/>
<polygon fill="#000000" stroke="#000000" points="161.1586,-183.5001 171.1585,-180 161.1585,-176.5001 161.1586,-183.5001"/>
</g>
<!-- UserService -->
<g id="node11" class="node">
<title>UserService</title>
<ellipse fill="#fdb462" stroke="#000000" cx="473" cy="-321" rx="58.4415" ry="18"/>
<text text-anchor="middle" x="473" y="-316.8" font-family="Times,serif" font-size="14.00" fill="#000000">UserService</text>
</g>
<!-- UserService&#45;&gt;UserModule -->
<g id="edge12" class="edge">
<title>UserService&#45;&gt;UserModule</title>
<path fill="none" stroke="#000000" d="M414.4225,-321C378.8819,-321 340.3294,-321 340.3294,-321 340.3294,-321 340.3294,-273.0109 340.3294,-273.0109"/>
<polygon fill="#000000" stroke="#000000" points="343.8295,-273.0109 340.3294,-263.0109 336.8295,-273.011 343.8295,-273.0109"/>
</g>
</g>
</svg>
