<?xml version="1.0" encoding="UTF-8" standalone="no"?>
<!DOCTYPE svg PUBLIC "-//W3C//DTD SVG 1.1//EN"
 "http://www.w3.org/Graphics/SVG/1.1/DTD/svg11.dtd">
<!-- Generated by graphviz version 2.40.1 (20161225.0304)
 -->
<!-- Title: dependencies Pages: 1 -->
<svg width="1160pt" height="382pt"
 viewBox="0.00 0.00 1160.00 382.00" xmlns="http://www.w3.org/2000/svg" xmlns:xlink="http://www.w3.org/1999/xlink">
<g id="graph0" class="graph" transform="scale(1 1) rotate(0) translate(4 378)">
<title>dependencies</title>
<polygon fill="#ffffff" stroke="transparent" points="-4,4 -4,-378 1156,-378 1156,4 -4,4"/>
<text text-anchor="start" x="555.0091" y="-42.4" font-family="sans-serif" font-weight="bold" font-size="14.00" fill="#000000">Legend</text>
<polygon fill="#ffffb3" stroke="transparent" points="342,-10 342,-30 362,-30 362,-10 342,-10"/>
<text text-anchor="start" x="365.629" y="-15.4" font-family="sans-serif" font-size="14.00" fill="#000000"> &#160;Declarations</text>
<polygon fill="#8dd3c7" stroke="transparent" points="455,-10 455,-30 475,-30 475,-10 455,-10"/>
<text text-anchor="start" x="478.7251" y="-15.4" font-family="sans-serif" font-size="14.00" fill="#000000"> &#160;Module</text>
<polygon fill="#80b1d3" stroke="transparent" points="541,-10 541,-30 561,-30 561,-10 541,-10"/>
<text text-anchor="start" x="564.7812" y="-15.4" font-family="sans-serif" font-size="14.00" fill="#000000"> &#160;Bootstrap</text>
<polygon fill="#fdb462" stroke="transparent" points="638,-10 638,-30 658,-30 658,-10 638,-10"/>
<text text-anchor="start" x="661.6732" y="-15.4" font-family="sans-serif" font-size="14.00" fill="#000000"> &#160;Providers</text>
<polygon fill="#fb8072" stroke="transparent" points="734,-10 734,-30 754,-30 754,-10 734,-10"/>
<text text-anchor="start" x="757.7258" y="-15.4" font-family="sans-serif" font-size="14.00" fill="#000000"> &#160;Exports</text>
<g id="clust1" class="cluster">
<title>cluster_AdminModule</title>
<polygon fill="none" stroke="#000000" stroke-dasharray="1,5" points="8,-146 8,-282 174,-282 174,-146 8,-146"/>
</g>
<g id="clust6" class="cluster">
<title>cluster_AdminModule_providers</title>
<polygon fill="none" stroke="#000000" points="16,-154 16,-206 166,-206 166,-154 16,-154"/>
</g>
<g id="clust7" class="cluster">
<title>cluster_AppModule</title>
<polygon fill="none" stroke="#000000" stroke-dasharray="1,5" points="358,-146 358,-358 876,-358 876,-146 358,-146"/>
</g>
<g id="clust9" class="cluster">
<title>cluster_AppModule_imports</title>
<polygon fill="none" stroke="#000000" points="504,-154 504,-282 868,-282 868,-154 504,-154"/>
</g>
<g id="clust12" class="cluster">
<title>cluster_AppModule_providers</title>
<polygon fill="none" stroke="#000000" points="366,-230 366,-282 496,-282 496,-230 366,-230"/>
</g>
<g id="clust13" class="cluster">
<title>cluster_AuthModule</title>
<polygon fill="none" stroke="#000000" stroke-dasharray="1,5" points="286,-70 286,-138 678,-138 678,-70 286,-70"/>
</g>
<g id="clust16" class="cluster">
<title>cluster_AuthModule_exports</title>
<polygon fill="none" stroke="#000000" points="568,-78 568,-130 670,-130 670,-78 568,-78"/>
</g>
<g id="clust18" class="cluster">
<title>cluster_AuthModule_providers</title>
<polygon fill="none" stroke="#000000" points="294,-78 294,-130 560,-130 560,-78 294,-78"/>
</g>
<g id="clust19" class="cluster">
<title>cluster_ConfigModule</title>
<polygon fill="none" stroke="#000000" stroke-dasharray="1,5" points="884,-222 884,-290 1016,-290 1016,-222 884,-222"/>
</g>
<g id="clust22" class="cluster">
<title>cluster_ConfigModule_exports</title>
<polygon fill="none" stroke="#000000" points="892,-230 892,-282 1008,-282 1008,-230 892,-230"/>
</g>
<g id="clust25" class="cluster">
<title>cluster_MarketModule</title>
<polygon fill="none" stroke="#000000" stroke-dasharray="1,5" points="182,-146 182,-214 350,-214 350,-146 182,-146"/>
</g>
<g id="clust30" class="cluster">
<title>cluster_MarketModule_providers</title>
<polygon fill="none" stroke="#000000" points="190,-154 190,-206 342,-206 342,-154 190,-154"/>
</g>
<g id="clust31" class="cluster">
<title>cluster_TransactionModule</title>
<polygon fill="none" stroke="#000000" stroke-dasharray="1,5" points="686,-70 686,-138 890,-138 890,-70 686,-70"/>
</g>
<g id="clust36" class="cluster">
<title>cluster_TransactionModule_providers</title>
<polygon fill="none" stroke="#000000" points="694,-78 694,-130 882,-130 882,-78 694,-78"/>
</g>
<g id="clust37" class="cluster">
<title>cluster_UserModule</title>
<polygon fill="none" stroke="#000000" stroke-dasharray="1,5" points="884,-298 884,-366 1144,-366 1144,-298 884,-298"/>
</g>
<g id="clust40" class="cluster">
<title>cluster_UserModule_exports</title>
<polygon fill="none" stroke="#000000" points="1032,-306 1032,-358 1136,-358 1136,-306 1032,-306"/>
</g>
<g id="clust42" class="cluster">
<title>cluster_UserModule_providers</title>
<polygon fill="none" stroke="#000000" points="892,-306 892,-358 1024,-358 1024,-306 892,-306"/>
</g>
<!-- AdminService -->
<g id="node1" class="node">
<title>AdminService</title>
<ellipse fill="#fdb462" stroke="#000000" cx="91" cy="-180" rx="66.6325" ry="18"/>
<text text-anchor="middle" x="91" y="-175.8" font-family="Times,serif" font-size="14.00" fill="#000000">AdminService</text>
</g>
<!-- AdminModule -->
<g id="node2" class="node">
<title>AdminModule</title>
<polygon fill="#8dd3c7" stroke="#000000" points="153.4386,-274 150.4386,-278 129.4386,-278 126.4386,-274 54.5614,-274 54.5614,-238 153.4386,-238 153.4386,-274"/>
<text text-anchor="middle" x="104" y="-251.8" font-family="Times,serif" font-size="14.00" fill="#000000">AdminModule</text>
</g>
<!-- AdminService&#45;&gt;AdminModule -->
<g id="edge1" class="edge">
<title>AdminService&#45;&gt;AdminModule</title>
<path fill="none" stroke="#000000" d="M104,-198.0109C104,-198.0109 104,-227.855 104,-227.855"/>
<polygon fill="#000000" stroke="#000000" points="100.5001,-227.8549 104,-237.855 107.5001,-227.855 100.5001,-227.8549"/>
</g>
<!-- AppModule -->
<g id="node8" class="node">
<title>AppModule</title>
<polygon fill="#8dd3c7" stroke="#000000" points="568.6571,-350 565.6571,-354 544.6571,-354 541.6571,-350 485.3429,-350 485.3429,-314 568.6571,-314 568.6571,-350"/>
<text text-anchor="middle" x="527" y="-327.8" font-family="Times,serif" font-size="14.00" fill="#000000">AppModule</text>
</g>
<!-- AdminModule&#45;&gt;AppModule -->
<g id="edge2" class="edge">
<title>AdminModule&#45;&gt;AppModule</title>
<path fill="none" stroke="#000000" d="M104,-274.0109C104,-296.4852 104,-332 104,-332 104,-332 475.2835,-332 475.2835,-332"/>
<polygon fill="#000000" stroke="#000000" points="475.2835,-335.5001 485.2835,-332 475.2834,-328.5001 475.2835,-335.5001"/>
</g>
<!-- AuthModule -->
<g id="node3" class="node">
<title>AuthModule</title>
<polygon fill="#8dd3c7" stroke="#000000" points="599.5482,-198 596.5482,-202 575.5482,-202 572.5482,-198 512.4518,-198 512.4518,-162 599.5482,-162 599.5482,-198"/>
<text text-anchor="middle" x="556" y="-175.8" font-family="Times,serif" font-size="14.00" fill="#000000">AuthModule</text>
</g>
<!-- MarketModule -->
<g id="node5" class="node">
<title>MarketModule</title>
<polygon fill="#8dd3c7" stroke="#000000" points="645.9748,-274 642.9748,-278 621.9748,-278 618.9748,-274 546.0252,-274 546.0252,-238 645.9748,-238 645.9748,-274"/>
<text text-anchor="middle" x="596" y="-251.8" font-family="Times,serif" font-size="14.00" fill="#000000">MarketModule</text>
</g>
<!-- AuthModule&#45;&gt;MarketModule -->
<g id="edge13" class="edge">
<title>AuthModule&#45;&gt;MarketModule</title>
<path fill="none" stroke="#000000" d="M563.9329,-198.0109C563.9329,-198.0109 563.9329,-227.855 563.9329,-227.855"/>
<polygon fill="#000000" stroke="#000000" points="560.433,-227.8549 563.9329,-237.855 567.433,-227.855 560.433,-227.8549"/>
</g>
<!-- UserModule -->
<g id="node7" class="node">
<title>UserModule</title>
<polygon fill="#8dd3c7" stroke="#000000" points="749.9762,-274 746.9762,-278 725.9762,-278 722.9762,-274 664.0238,-274 664.0238,-238 749.9762,-238 749.9762,-274"/>
<text text-anchor="middle" x="707" y="-251.8" font-family="Times,serif" font-size="14.00" fill="#000000">UserModule</text>
</g>
<!-- AuthModule&#45;&gt;UserModule -->
<g id="edge16" class="edge">
<title>AuthModule&#45;&gt;UserModule</title>
<path fill="none" stroke="#000000" d="M581.8532,-198.1097C581.8532,-207.897 581.8532,-218 581.8532,-218 581.8532,-218 703.9141,-218 703.9141,-218 703.9141,-218 703.9141,-227.8903 703.9141,-227.8903"/>
<polygon fill="#000000" stroke="#000000" points="700.4142,-227.8903 703.9141,-237.8903 707.4142,-227.8904 700.4142,-227.8903"/>
</g>
<!-- AuthModule&#45;&gt;AppModule -->
<g id="edge3" class="edge">
<title>AuthModule&#45;&gt;AppModule</title>
<path fill="none" stroke="#000000" d="M529.1196,-198.0333C529.1196,-198.0333 529.1196,-303.9902 529.1196,-303.9902"/>
<polygon fill="#000000" stroke="#000000" points="525.6196,-303.9901 529.1196,-313.9902 532.6196,-303.9902 525.6196,-303.9901"/>
</g>
<!-- JwtStrategy  -->
<g id="node10" class="node">
<title>JwtStrategy </title>
<polygon fill="#fb8072" stroke="#000000" points="661.5964,-122 576.4036,-122 576.4036,-86 661.5964,-86 661.5964,-122"/>
<text text-anchor="middle" x="619" y="-99.8" font-family="Times,serif" font-size="14.00" fill="#000000">JwtStrategy </text>
</g>
<!-- AuthModule&#45;&gt;JwtStrategy  -->
<g id="edge9" class="edge">
<title>AuthModule&#45;&gt;JwtStrategy </title>
<path fill="none" stroke="#000000" stroke-dasharray="5,2" d="M587.9879,-161.9891C587.9879,-161.9891 587.9879,-132.145 587.9879,-132.145"/>
<polygon fill="#000000" stroke="#000000" points="591.488,-132.145 587.9879,-122.145 584.488,-132.1451 591.488,-132.145"/>
</g>
<!-- ConfigModule -->
<g id="node4" class="node">
<title>ConfigModule</title>
<polygon fill="#8dd3c7" stroke="#000000" points="860.4386,-198 857.4386,-202 836.4386,-202 833.4386,-198 761.5614,-198 761.5614,-162 860.4386,-162 860.4386,-198"/>
<text text-anchor="middle" x="811" y="-175.8" font-family="Times,serif" font-size="14.00" fill="#000000">ConfigModule</text>
</g>
<!-- ConfigModule&#45;&gt;UserModule -->
<g id="edge17" class="edge">
<title>ConfigModule&#45;&gt;UserModule</title>
<path fill="none" stroke="#000000" d="M786.3906,-198.1985C786.3906,-222.3563 786.3906,-262 786.3906,-262 786.3906,-262 760.4119,-262 760.4119,-262"/>
<polygon fill="#000000" stroke="#000000" points="760.4119,-258.5001 750.4119,-262 760.4119,-265.5001 760.4119,-258.5001"/>
</g>
<!-- ConfigModule&#45;&gt;AppModule -->
<g id="edge4" class="edge">
<title>ConfigModule&#45;&gt;AppModule</title>
<path fill="none" stroke="#000000" d="M811,-198.0666C811,-240.5057 811,-343 811,-343 811,-343 578.9052,-343 578.9052,-343"/>
<polygon fill="#000000" stroke="#000000" points="578.9052,-339.5001 568.9052,-343 578.9051,-346.5001 578.9052,-339.5001"/>
</g>
<!-- ConfigService  -->
<g id="node13" class="node">
<title>ConfigService </title>
<polygon fill="#fb8072" stroke="#000000" points="1000.3661,-274 899.6339,-274 899.6339,-238 1000.3661,-238 1000.3661,-274"/>
<text text-anchor="middle" x="950" y="-251.8" font-family="Times,serif" font-size="14.00" fill="#000000">ConfigService </text>
</g>
<!-- ConfigModule&#45;&gt;ConfigService  -->
<g id="edge12" class="edge">
<title>ConfigModule&#45;&gt;ConfigService </title>
<path fill="none" stroke="#000000" stroke-dasharray="5,2" d="M835.6094,-198.0267C835.6094,-218.7672 835.6094,-250 835.6094,-250 835.6094,-250 889.4936,-250 889.4936,-250"/>
<polygon fill="#000000" stroke="#000000" points="889.4937,-253.5001 899.4936,-250 889.4936,-246.5001 889.4937,-253.5001"/>
</g>
<!-- MarketModule&#45;&gt;AppModule -->
<g id="edge5" class="edge">
<title>MarketModule&#45;&gt;AppModule</title>
<path fill="none" stroke="#000000" d="M557.4204,-274.0109C557.4204,-274.0109 557.4204,-303.855 557.4204,-303.855"/>
<polygon fill="#000000" stroke="#000000" points="553.9205,-303.8549 557.4204,-313.855 560.9205,-303.855 553.9205,-303.8549"/>
</g>
<!-- TransactionModule -->
<g id="node6" class="node">
<title>TransactionModule</title>
<polygon fill="#8dd3c7" stroke="#000000" points="743.6331,-198 740.6331,-202 719.6331,-202 716.6331,-198 618.3669,-198 618.3669,-162 743.6331,-162 743.6331,-198"/>
<text text-anchor="middle" x="681" y="-175.8" font-family="Times,serif" font-size="14.00" fill="#000000">TransactionModule</text>
</g>
<!-- TransactionModule&#45;&gt;AppModule -->
<g id="edge6" class="edge">
<title>TransactionModule&#45;&gt;AppModule</title>
<path fill="none" stroke="#000000" d="M654.9997,-198.2703C654.9997,-238.0576 654.9997,-329 654.9997,-329 654.9997,-329 578.9119,-329 578.9119,-329"/>
<polygon fill="#000000" stroke="#000000" points="578.9119,-325.5001 568.9119,-329 578.9118,-332.5001 578.9119,-325.5001"/>
</g>
<!-- UserModule&#45;&gt;AppModule -->
<g id="edge7" class="edge">
<title>UserModule&#45;&gt;AppModule</title>
<path fill="none" stroke="#000000" d="M707,-274.1532C707,-297.7566 707,-336 707,-336 707,-336 578.748,-336 578.748,-336"/>
<polygon fill="#000000" stroke="#000000" points="578.7481,-332.5001 568.748,-336 578.748,-339.5001 578.7481,-332.5001"/>
</g>
<!-- UserService  -->
<g id="node16" class="node">
<title>UserService </title>
<polygon fill="#fb8072" stroke="#000000" points="1127.9041,-350 1040.0959,-350 1040.0959,-314 1127.9041,-314 1127.9041,-350"/>
<text text-anchor="middle" x="1084" y="-327.8" font-family="Times,serif" font-size="14.00" fill="#000000">UserService </text>
</g>
<!-- UserModule&#45;&gt;UserService  -->
<g id="edge18" class="edge">
<title>UserModule&#45;&gt;UserService </title>
<path fill="none" stroke="#000000" stroke-dasharray="5,2" d="M685.506,-274.1097C685.506,-283.897 685.506,-294 685.506,-294 685.506,-294 1084,-294 1084,-294 1084,-294 1084,-303.8903 1084,-303.8903"/>
<polygon fill="#000000" stroke="#000000" points="1080.5001,-303.8903 1084,-313.8903 1087.5001,-303.8904 1080.5001,-303.8903"/>
</g>
<!-- AppService -->
<g id="node9" class="node">
<title>AppService</title>
<ellipse fill="#fdb462" stroke="#000000" cx="431" cy="-256" rx="56.7406" ry="18"/>
<text text-anchor="middle" x="431" y="-251.8" font-family="Times,serif" font-size="14.00" fill="#000000">AppService</text>
</g>
<!-- AppService&#45;&gt;AppModule -->
<g id="edge8" class="edge">
<title>AppService&#45;&gt;AppModule</title>
<path fill="none" stroke="#000000" d="M484.5311,-250C491.2486,-250 495.8223,-250 495.8223,-250 495.8223,-250 495.8223,-303.8015 495.8223,-303.8015"/>
<polygon fill="#000000" stroke="#000000" points="492.3224,-303.8015 495.8223,-313.8015 499.3224,-303.8016 492.3224,-303.8015"/>
</g>
<!-- AuthService -->
<g id="node11" class="node">
<title>AuthService</title>
<ellipse fill="#fdb462" stroke="#000000" cx="493" cy="-104" rx="59.1083" ry="18"/>
<text text-anchor="middle" x="493" y="-99.8" font-family="Times,serif" font-size="14.00" fill="#000000">AuthService</text>
</g>
<!-- AuthService&#45;&gt;AuthModule -->
<g id="edge10" class="edge">
<title>AuthService&#45;&gt;AuthModule</title>
<path fill="none" stroke="#000000" d="M532.2652,-117.5873C532.2652,-117.5873 532.2652,-151.9574 532.2652,-151.9574"/>
<polygon fill="#000000" stroke="#000000" points="528.7653,-151.9574 532.2652,-161.9574 535.7653,-151.9575 528.7653,-151.9574"/>
</g>
<!-- JwtStrategy -->
<g id="node12" class="node">
<title>JwtStrategy</title>
<ellipse fill="#fdb462" stroke="#000000" cx="359" cy="-104" rx="56.7561" ry="18"/>
<text text-anchor="middle" x="359" y="-99.8" font-family="Times,serif" font-size="14.00" fill="#000000">JwtStrategy</text>
</g>
<!-- JwtStrategy&#45;&gt;AuthModule -->
<g id="edge11" class="edge">
<title>JwtStrategy&#45;&gt;AuthModule</title>
<path fill="none" stroke="#000000" d="M395.0039,-118.1655C395.0039,-138.6198 395.0039,-174 395.0039,-174 395.0039,-174 502.4321,-174 502.4321,-174"/>
<polygon fill="#000000" stroke="#000000" points="502.4322,-177.5001 512.4321,-174 502.4321,-170.5001 502.4322,-177.5001"/>
</g>
<!-- MarketService -->
<g id="node14" class="node">
<title>MarketService</title>
<ellipse fill="#fdb462" stroke="#000000" cx="266" cy="-180" rx="67.7529" ry="18"/>
<text text-anchor="middle" x="266" y="-175.8" font-family="Times,serif" font-size="14.00" fill="#000000">MarketService</text>
</g>
<!-- MarketService&#45;&gt;MarketModule -->
<g id="edge14" class="edge">
<title>MarketService&#45;&gt;MarketModule</title>
<path fill="none" stroke="#000000" d="M330.0993,-186C400.5985,-186 504.0244,-186 504.0244,-186 504.0244,-186 504.0244,-262 504.0244,-262 504.0244,-262 535.9749,-262 535.9749,-262"/>
<polygon fill="#000000" stroke="#000000" points="535.975,-265.5001 545.9749,-262 535.9749,-258.5001 535.975,-265.5001"/>
</g>
<!-- TransactionService -->
<g id="node15" class="node">
<title>TransactionService</title>
<ellipse fill="#fdb462" stroke="#000000" cx="788" cy="-104" rx="85.6493" ry="18"/>
<text text-anchor="middle" x="788" y="-99.8" font-family="Times,serif" font-size="14.00" fill="#000000">TransactionService</text>
</g>
<!-- TransactionService&#45;&gt;TransactionModule -->
<g id="edge15" class="edge">
<title>TransactionService&#45;&gt;TransactionModule</title>
<path fill="none" stroke="#000000" d="M723.1208,-115.875C723.1208,-115.875 723.1208,-151.9891 723.1208,-151.9891"/>
<polygon fill="#000000" stroke="#000000" points="719.6209,-151.989 723.1208,-161.9891 726.6209,-151.9891 719.6209,-151.989"/>
</g>
<!-- UserService -->
<g id="node17" class="node">
<title>UserService</title>
<ellipse fill="#fdb462" stroke="#000000" cx="958" cy="-332" rx="58.4415" ry="18"/>
<text text-anchor="middle" x="958" y="-327.8" font-family="Times,serif" font-size="14.00" fill="#000000">UserService</text>
</g>
<!-- UserService&#45;&gt;UserModule -->
<g id="edge19" class="edge">
<title>UserService&#45;&gt;UserModule</title>
<path fill="none" stroke="#000000" d="M909.3277,-322C841.9583,-322 728.4941,-322 728.4941,-322 728.4941,-322 728.4941,-284.0348 728.4941,-284.0348"/>
<polygon fill="#000000" stroke="#000000" points="731.9941,-284.0348 728.4941,-274.0348 724.9941,-284.0348 731.9941,-284.0348"/>
</g>
</g>
</svg>
